<?xml version="1.0" encoding="UTF-8"?>
<svg width="144px" height="27px" viewBox="0 0 144 27" version="1.1" xmlns="http://www.w3.org/2000/svg" xmlns:xlink="http://www.w3.org/1999/xlink">
    <!-- Generator: Sketch 52.6 (67491) - http://www.bohemiancoding.com/sketch -->
    <title>launch-stack</title>
    <desc>Created with Sketch.</desc>
    <defs>
        <linearGradient x1="50%" y1="0%" x2="50%" y2="100%" id="linearGradient-1">
            <stop stop-color="#FFE4B2" offset="0%"></stop>
            <stop stop-color="#F79800" offset="100%"></stop>
        </linearGradient>
        <linearGradient x1="45.0169613%" y1="100%" x2="68.0818257%" y2="3.3203125%" id="linearGradient-2">
            <stop stop-color="#151443" offset="0%"></stop>
            <stop stop-color="#6D80B2" offset="100%"></stop>
        </linearGradient>
    </defs>
    <g id="Page-1" stroke="none" stroke-width="1" fill="none" fill-rule="evenodd">
        <g id="launch-stack">
            <path d="M2,4.99943992 L2,4.99943992 L2,22.0005601 C2,23.6606345 3.34022668,25 4.99862383,25 L130.501381,25 C136.847911,25 142,19.8490262 142,13.5 C142,7.14764397 136.852451,2 130.501381,2 L4.99862383,2 C3.33966088,2 2,3.34079922 2,4.99943992 L2,4.99943992 Z" id="Path" fill="url(#linearGradient-1)"></path>
            <path d="M2,4.99943992 L2,4.99943992 L2,22.0005601 C2,23.6606345 3.34022668,25 4.99862383,25 L130.501381,25 C136.847911,25 142,19.8490262 142,13.5 C142,7.14764397 136.852451,2 130.501381,2 L4.99862383,2 C3.33966088,2 2,3.34079922 2,4.99943992 L2,4.99943992 Z M0,4.99943992 C0,2.2383255 2.23299671,0 4.99862383,0 L130.501381,0 C137.956462,0 144,6.04251654 144,13.5 C144,20.9558441 137.950232,27 130.501381,27 L4.99862383,27 C2.23796012,27 0,24.7675058 0,22.0005601 L0,4.99943992 L0,4.99943992 Z" id="CloudFormation-Launch-Stack-Button" fill="#0058A5" fill-rule="nonzero"></path>
            <circle id="Oval-1" fill="url(#linearGradient-2)" cx="129.5" cy="13.5" r="9.5"></circle>
            <polygon id="Triangle-1" fill="#FFFFFF" transform="translate(130.500000, 13.500000) rotate(90.000000) translate(-130.500000, -13.500000) " points="130.5 11 135 16 126 16"></polygon>
            <path d="M18.136,19 L24.536,19 L24.536,17.352 L20.104,17.352 L20.104,8.216 L18.136,8.216 L18.136,19 Z M32.204,19 C32.124,18.52 32.092,17.832 32.092,17.128 L32.092,14.312 C32.092,12.616 31.372,11.032 28.876,11.032 C27.644,11.032 26.636,11.368 26.06,11.72 L26.444,13 C26.972,12.664 27.772,12.424 28.54,12.424 C29.916,12.424 30.124,13.272 30.124,13.784 L30.124,13.912 C27.244,13.896 25.5,14.888 25.5,16.856 C25.5,18.04 26.38,19.176 27.948,19.176 C28.956,19.176 29.772,18.744 30.252,18.136 L30.3,18.136 L30.428,19 L32.204,19 Z M30.172,16.264 C30.172,16.392 30.156,16.552 30.108,16.696 C29.932,17.256 29.356,17.768 28.572,17.768 C27.948,17.768 27.452,17.416 27.452,16.648 C27.452,15.464 28.78,15.16 30.172,15.192 L30.172,16.264 Z M41.248,11.208 L39.28,11.208 L39.28,15.912 C39.28,16.136 39.232,16.344 39.168,16.52 C38.96,17.016 38.448,17.576 37.664,17.576 C36.624,17.576 36.208,16.744 36.208,15.448 L36.208,11.208 L34.24,11.208 L34.24,15.784 C34.24,18.328 35.536,19.176 36.96,19.176 C38.352,19.176 39.12,18.376 39.456,17.816 L39.488,17.816 L39.584,19 L41.312,19 C41.28,18.36 41.248,17.592 41.248,16.664 L41.248,11.208 Z M43.476,19 L45.46,19 L45.46,14.424 C45.46,14.2 45.476,13.96 45.54,13.784 C45.748,13.192 46.292,12.632 47.076,12.632 C48.148,12.632 48.564,13.48 48.564,14.6 L48.564,19 L50.532,19 L50.532,14.376 C50.532,11.912 49.124,11.032 47.764,11.032 C46.468,11.032 45.62,11.768 45.284,12.376 L45.236,12.376 L45.14,11.208 L43.412,11.208 C43.46,11.88 43.476,12.632 43.476,13.528 L43.476,19 Z M58.184,17.304 C57.8,17.464 57.32,17.608 56.632,17.608 C55.288,17.608 54.248,16.696 54.248,15.096 C54.232,13.672 55.128,12.568 56.632,12.568 C57.336,12.568 57.8,12.728 58.12,12.872 L58.472,11.4 C58.024,11.192 57.288,11.032 56.568,11.032 C53.832,11.032 52.232,12.856 52.232,15.192 C52.232,17.608 53.816,19.16 56.248,19.16 C57.224,19.16 58.04,18.952 58.456,18.76 L58.184,17.304 Z M60.012,19 L61.996,19 L61.996,14.344 C61.996,14.12 62.012,13.912 62.076,13.752 C62.284,13.16 62.828,12.648 63.596,12.648 C64.684,12.648 65.1,13.496 65.1,14.632 L65.1,19 L67.068,19 L67.068,14.408 C67.068,11.912 65.676,11.032 64.348,11.032 C63.852,11.032 63.388,11.16 63.004,11.384 C62.588,11.608 62.268,11.912 62.028,12.28 L61.996,12.28 L61.996,7.64 L60.012,7.64 L60.012,19 Z M72.276,18.488 C72.868,18.84 74.052,19.16 75.188,19.16 C77.972,19.16 79.284,17.656 79.284,15.928 C79.284,14.376 78.372,13.432 76.5,12.728 C75.06,12.168 74.436,11.784 74.436,10.952 C74.436,10.328 74.98,9.656 76.228,9.656 C77.236,9.656 77.988,9.96 78.372,10.168 L78.852,8.584 C78.292,8.296 77.428,8.04 76.26,8.04 C73.924,8.04 72.452,9.384 72.452,11.144 C72.452,12.696 73.588,13.64 75.364,14.28 C76.74,14.776 77.284,15.256 77.284,16.072 C77.284,16.952 76.58,17.544 75.316,17.544 C74.308,17.544 73.348,17.224 72.708,16.856 L72.276,18.488 Z M81.352,9.448 L81.352,11.208 L80.232,11.208 L80.232,12.68 L81.352,12.68 L81.352,16.344 C81.352,17.368 81.544,18.072 81.96,18.52 C82.328,18.92 82.936,19.16 83.656,19.16 C84.28,19.16 84.792,19.08 85.08,18.968 L85.048,17.464 C84.872,17.512 84.616,17.56 84.28,17.56 C83.528,17.56 83.272,17.064 83.272,16.12 L83.272,12.68 L85.144,12.68 L85.144,11.208 L83.272,11.208 L83.272,8.984 L81.352,9.448 Z M92.892,19 C92.812,18.52 92.78,17.832 92.78,17.128 L92.78,14.312 C92.78,12.616 92.06,11.032 89.564,11.032 C88.332,11.032 87.324,11.368 86.748,11.72 L87.132,13 C87.66,12.664 88.46,12.424 89.228,12.424 C90.604,12.424 90.812,13.272 90.812,13.784 L90.812,13.912 C87.932,13.896 86.188,14.888 86.188,16.856 C86.188,18.04 87.068,19.176 88.636,19.176 C89.644,19.176 90.46,18.744 90.94,18.136 L90.988,18.136 L91.116,19 L92.892,19 Z M90.86,16.264 C90.86,16.392 90.844,16.552 90.796,16.696 C90.62,17.256 90.044,17.768 89.26,17.768 C88.636,17.768 88.14,17.416 88.14,16.648 C88.14,15.464 89.468,15.16 90.86,15.192 L90.86,16.264 Z M100.416,17.304 C100.032,17.464 99.552,17.608 98.864,17.608 C97.52,17.608 96.48,16.696 96.48,15.096 C96.464,13.672 97.36,12.568 98.864,12.568 C99.568,12.568 100.032,12.728 100.352,12.872 L100.704,11.4 C100.256,11.192 99.52,11.032 98.8,11.032 C96.064,11.032 94.464,12.856 94.464,15.192 C94.464,17.608 96.048,19.16 98.48,19.16 C99.456,19.16 100.272,18.952 100.688,18.76 L100.416,17.304 Z M104.212,7.64 L102.244,7.64 L102.244,19 L104.212,19 L104.212,16.344 L104.884,15.56 L107.124,19 L109.54,19 L106.244,14.392 L109.124,11.208 L106.756,11.208 L104.868,13.72 C104.66,13.992 104.436,14.328 104.244,14.632 L104.212,14.632 L104.212,7.64 Z" id="Launch-Stack" fill="#000000"></path>
        </g>
    </g>
</svg>